<svg xmlns="http://www.w3.org/2000/svg" version="1.1" xmlns:xlink="http://www.w3.org/1999/xlink" xmlns:svgjs="http://svgjs.dev/svgjs" width="1500" height="291" viewBox="0 0 1500 291"><g transform="matrix(1,0,0,1,-0.9090909090909918,-0.0349746401230675)"><svg viewBox="0 0 396 77" data-background-color="#ececea" preserveAspectRatio="xMidYMid meet" height="291" width="1500" xmlns="http://www.w3.org/2000/svg" xmlns:xlink="http://www.w3.org/1999/xlink"><g id="tight-bounds" transform="matrix(1,0,0,1,0.2400000000000091,0.009254458039436031)"><svg viewBox="0 0 395.52 76.98149108392116" height="76.98149108392116" width="395.52"><g><svg viewBox="0 0 527.2270940682076 102.6161201486989" height="76.98149108392116" width="395.52"><g transform="matrix(1,0,0,1,131.70709406820762,14.182112118959111)"><svg viewBox="0 0 395.52 74.25189591078068" height="74.25189591078068" width="395.52"><g id="textblocktransform"><svg viewBox="0 0 395.52 74.25189591078068" height="74.25189591078068" width="395.52" id="textblock"><g><svg viewBox="0 0 395.52 74.25189591078068" height="74.25189591078068" width="395.52"><g transform="matrix(1,0,0,1,0,0)"><svg width="395.52" viewBox="3 -39.65 268.97 50.5" height="74.25189591078068" data-palette-color="#009b7d"><path d="M25.35 0L18.5 0 12.4-13.95 11.8-13.95 9.35-13.95 9.35 0 3 0 3-34.55 11.15-34.55Q23.65-34.55 23.65-24.4L23.65-24.4Q23.65-21.25 22.25-18.82 20.85-16.4 18.05-15.15L18.05-15.15 25.35 0ZM11.45-18.55Q14.4-18.55 15.73-19.95 17.05-21.35 17.05-24.4L17.05-24.4Q17.05-27.25 15.68-28.58 14.3-29.9 11.15-29.9L11.15-29.9 9.35-29.9 9.35-18.55 11.45-18.55ZM47.25-13.85Q47.25-13.4 47.1-11.3L47.1-11.3 33.45-11.3Q33.65-7.2 34.87-5.58 36.1-3.95 38.35-3.95L38.35-3.95Q39.9-3.95 41.15-4.48 42.4-5 43.85-6.15L43.85-6.15 46.4-2.65Q42.9 0.75 38 0.75L38 0.75Q32.8 0.75 30.02-2.85 27.25-6.45 27.25-13L27.25-13Q27.25-19.55 29.9-23.35 32.55-27.15 37.4-27.15L37.4-27.15Q42.05-27.15 44.65-23.78 47.25-20.4 47.25-13.85L47.25-13.85ZM41.25-15.3L41.25-15.65Q41.25-19.4 40.35-21.13 39.45-22.85 37.45-22.85L37.45-22.85Q35.6-22.85 34.62-21.18 33.65-19.5 33.45-15.3L33.45-15.3 41.25-15.3ZM61.05-27.15Q63.2-27.15 64.95-26.43 66.7-25.7 68.3-24.15L68.3-24.15 65.65-20.65Q64.55-21.55 63.57-21.98 62.6-22.4 61.45-22.4L61.45-22.4Q59.2-22.4 58.05-20.28 56.9-18.15 56.9-13.1L56.9-13.1Q56.9-8.2 58.07-6.2 59.25-4.2 61.45-4.2L61.45-4.2Q62.55-4.2 63.45-4.6 64.35-5 65.55-5.85L65.55-5.85 68.3-2.3Q65.1 0.75 61.15 0.75L61.15 0.75Q56.05 0.75 53.22-2.73 50.4-6.2 50.4-13L50.4-13Q50.4-17.4 51.7-20.6 53-23.8 55.42-25.48 57.85-27.15 61.05-27.15L61.05-27.15ZM71.34-26.45L77.49-26.45 77.49 0 71.34 0 71.34-26.45ZM74.39-39.65Q76.04-39.65 77.07-38.6 78.09-37.55 78.09-35.9L78.09-35.9Q78.09-34.3 77.07-33.25 76.04-32.2 74.39-32.2L74.39-32.2Q72.74-32.2 71.72-33.25 70.69-34.3 70.69-35.9L70.69-35.9Q70.69-37.55 71.72-38.6 72.74-39.65 74.39-39.65L74.39-39.65ZM95.39-27.15Q99.29-27.15 101.29-23.58 103.29-20 103.29-13.3L103.29-13.3Q103.29-6.8 101.02-3.03 98.74 0.75 94.69 0.75L94.69 0.75Q91.49 0.75 89.34-2.1L89.34-2.1 89.34 10.15 83.19 10.85 83.19-26.45 88.64-26.45 88.89-23.25Q90.19-25.25 91.79-26.2 93.39-27.15 95.39-27.15L95.39-27.15ZM93.04-3.95Q94.94-3.95 95.94-6.13 96.94-8.3 96.94-13.25L96.94-13.25Q96.94-18.45 96.09-20.5 95.24-22.55 93.44-22.55L93.44-22.55Q91.14-22.55 89.34-19.25L89.34-19.25 89.34-6.45Q90.94-3.95 93.04-3.95L93.04-3.95ZM126.74-13.85Q126.74-13.4 126.59-11.3L126.59-11.3 112.94-11.3Q113.14-7.2 114.36-5.58 115.59-3.95 117.84-3.95L117.84-3.95Q119.39-3.95 120.64-4.48 121.89-5 123.34-6.15L123.34-6.15 125.89-2.65Q122.39 0.75 117.49 0.75L117.49 0.75Q112.29 0.75 109.51-2.85 106.74-6.45 106.74-13L106.74-13Q106.74-19.55 109.39-23.35 112.04-27.15 116.89-27.15L116.89-27.15Q121.54-27.15 124.14-23.78 126.74-20.4 126.74-13.85L126.74-13.85ZM120.74-15.3L120.74-15.65Q120.74-19.4 119.84-21.13 118.94-22.85 116.94-22.85L116.94-22.85Q115.09-22.85 114.11-21.18 113.14-19.5 112.94-15.3L112.94-15.3 120.74-15.3ZM163.38 0L156.53 0 150.43-13.95 149.83-13.95 147.38-13.95 147.38 0 141.03 0 141.03-34.55 149.18-34.55Q161.68-34.55 161.68-24.4L161.68-24.4Q161.68-21.25 160.28-18.82 158.88-16.4 156.08-15.15L156.08-15.15 163.38 0ZM149.48-18.55Q152.43-18.55 153.76-19.95 155.08-21.35 155.08-24.4L155.08-24.4Q155.08-27.25 153.71-28.58 152.33-29.9 149.18-29.9L149.18-29.9 147.38-29.9 147.38-18.55 149.48-18.55ZM185.28-13.85Q185.28-13.4 185.13-11.3L185.13-11.3 171.48-11.3Q171.68-7.2 172.91-5.58 174.13-3.95 176.38-3.95L176.38-3.95Q177.93-3.95 179.18-4.48 180.43-5 181.88-6.15L181.88-6.15 184.43-2.65Q180.93 0.75 176.03 0.75L176.03 0.75Q170.83 0.75 168.06-2.85 165.28-6.45 165.28-13L165.28-13Q165.28-19.55 167.93-23.35 170.58-27.15 175.43-27.15L175.43-27.15Q180.08-27.15 182.68-23.78 185.28-20.4 185.28-13.85L185.28-13.85ZM179.28-15.3L179.28-15.65Q179.28-19.4 178.38-21.13 177.48-22.85 175.48-22.85L175.48-22.85Q173.63-22.85 172.66-21.18 171.68-19.5 171.48-15.3L171.48-15.3 179.28-15.3ZM196.93-27.15Q201.63-27.15 204.88-24.05L204.88-24.05 202.53-20.7Q201.13-21.7 199.88-22.2 198.63-22.7 197.33-22.7L197.33-22.7Q195.88-22.7 195.05-21.93 194.23-21.15 194.23-19.8L194.23-19.8Q194.23-18.45 195.15-17.63 196.08-16.8 198.88-15.7L198.88-15.7Q202.33-14.35 203.98-12.5 205.63-10.65 205.63-7.55L205.63-7.55Q205.63-3.7 202.93-1.48 200.23 0.75 196.08 0.75L196.08 0.75Q193.38 0.75 191.1-0.23 188.83-1.2 187.13-2.95L187.13-2.95 190.13-6.25Q192.93-3.8 195.83-3.8L195.83-3.8Q197.48-3.8 198.43-4.67 199.38-5.55 199.38-7.1L199.38-7.1Q199.38-8.25 198.98-8.97 198.58-9.7 197.58-10.33 196.58-10.95 194.58-11.7L194.58-11.7Q191.13-13.05 189.65-14.85 188.18-16.65 188.18-19.45L188.18-19.45Q188.18-22.8 190.55-24.98 192.93-27.15 196.93-27.15L196.93-27.15ZM218.98-27.15Q221.13-27.15 222.88-26.43 224.63-25.7 226.23-24.15L226.23-24.15 223.58-20.65Q222.48-21.55 221.5-21.98 220.53-22.4 219.38-22.4L219.38-22.4Q217.13-22.4 215.98-20.28 214.83-18.15 214.83-13.1L214.83-13.1Q214.83-8.2 216-6.2 217.18-4.2 219.38-4.2L219.38-4.2Q220.48-4.2 221.38-4.6 222.28-5 223.48-5.85L223.48-5.85 226.23-2.3Q223.03 0.75 219.08 0.75L219.08 0.75Q213.98 0.75 211.15-2.73 208.33-6.2 208.33-13L208.33-13Q208.33-17.4 209.63-20.6 210.93-23.8 213.35-25.48 215.78-27.15 218.98-27.15L218.98-27.15ZM247.42-26.45L247.42 0 242.07 0 241.77-3.35Q240.52-1.3 238.97-0.28 237.42 0.75 235.37 0.75L235.37 0.75Q232.47 0.75 230.8-1.3 229.12-3.35 229.12-6.65L229.12-6.65 229.12-26.45 235.27-26.45 235.27-7Q235.27-3.9 237.37-3.9L237.37-3.9Q238.57-3.9 239.52-4.83 240.47-5.75 241.27-7.45L241.27-7.45 241.27-26.45 247.42-26.45ZM271.97-13.85Q271.97-13.4 271.82-11.3L271.82-11.3 258.17-11.3Q258.37-7.2 259.6-5.58 260.82-3.95 263.07-3.95L263.07-3.95Q264.62-3.95 265.87-4.48 267.12-5 268.57-6.15L268.57-6.15 271.12-2.65Q267.62 0.75 262.72 0.75L262.72 0.75Q257.52 0.75 254.75-2.85 251.97-6.45 251.97-13L251.97-13Q251.97-19.55 254.62-23.35 257.27-27.15 262.12-27.15L262.12-27.15Q266.77-27.15 269.37-23.78 271.97-20.4 271.97-13.85L271.97-13.85ZM265.97-15.3L265.97-15.65Q265.97-19.4 265.07-21.13 264.17-22.85 262.17-22.85L262.17-22.85Q260.32-22.85 259.35-21.18 258.37-19.5 258.17-15.3L258.17-15.3 265.97-15.3Z" opacity="1" transform="matrix(1,0,0,1,0,0)" fill="#009b7d" class="wordmark-text-0" data-fill-palette-color="primary" id="text-0"></path></svg></g></svg></g></svg></g></svg></g><g><svg viewBox="0 0 114.17800348917417 102.6161201486989" height="102.6161201486989" width="114.17800348917417"><g><svg xmlns="http://www.w3.org/2000/svg" xmlns:xlink="http://www.w3.org/1999/xlink" version="1.1" x="0" y="0" viewBox="16.619000000000007 19.99875 66.76027315445862 60.00000001600512" enable-background="new 0 0 100 100" xml:space="preserve" height="102.6161201486989" width="114.17800348917417" class="icon-icon-0" data-fill-palette-color="accent" id="icon-0"><g fill="#ffbf5d" data-fill-palette-color="accent"><g fill="#ffbf5d" data-fill-palette-color="accent"><path d="M71.842 38.928c-0.24-3.188-3.029-5.587-6.217-5.347-3.19 0.242-5.589 3.031-5.349 6.218 0.198 2.628 2.144 4.78 4.694 5.262l1.334 17.752c0.074 0.849 0.822 1.488 1.67 1.424 0.414-0.031 0.793-0.223 1.064-0.541 0.27-0.316 0.4-0.717 0.367-1.127l-1.342-17.768C70.467 43.918 72.037 41.512 71.842 38.928zM65.852 36.608c1.51-0.114 2.83 1.021 2.943 2.53 0.113 1.509-1.021 2.829-2.531 2.942s-2.83-1.021-2.943-2.53C63.206 38.042 64.342 36.722 65.852 36.608z" fill="#ffbf5d" data-fill-palette-color="accent"></path><path d="M82.086 45.149c-0.412-0.069-0.826 0.026-1.166 0.269-0.338 0.242-0.562 0.6-0.627 1.005l-0.422 2.49c-0.16 0.941-0.709 1.661-1.49 2l0.795-4.687c0.137-0.843-0.436-1.645-1.275-1.787-0.41-0.07-0.824 0.026-1.168 0.27-0.338 0.244-0.559 0.602-0.623 1.004l-0.793 4.681c-0.627-0.578-0.91-1.438-0.748-2.379l0.424-2.5c0.135-0.842-0.438-1.642-1.275-1.784-0.412-0.07-0.824 0.025-1.164 0.268-0.34 0.242-0.562 0.601-0.629 1.006L71.5 47.514c-0.441 2.598 0.928 5.155 3.287 6.237l-2.979 17.551c-0.133 0.842 0.439 1.642 1.277 1.784 0.41 0.069 0.824-0.026 1.164-0.269 0.338-0.242 0.561-0.6 0.627-1.005l2.977-17.569c2.545-0.28 4.648-2.245 5.082-4.811l0.424-2.496C83.496 46.094 82.924 45.292 82.086 45.149z" fill="#ffbf5d" data-fill-palette-color="accent"></path></g><path d="M52.334 54.759c-0.066 0-0.128 0.016-0.193 0.02 0.112-0.386 0.193-0.786 0.193-1.209 0-2.366-1.917-4.284-4.283-4.284s-4.283 1.918-4.283 4.284c0 0.008 0.002 0.015 0.002 0.023-1.637 0.095-3.004 1.149-3.551 2.618-0.089-0.008-0.176-0.027-0.267-0.027-1.58 0-2.863 1.282-2.863 2.863s1.283 2.863 2.863 2.863c0 1.316 1.067 2.383 2.384 2.383 0.431 0 0.828-0.124 1.178-0.323 0.153 0.112 0.316 0.209 0.49 0.29 0 0.01-0.002 0.019-0.002 0.029 0 1.447 1.172 2.62 2.618 2.62 1.447 0 2.621-1.173 2.621-2.62 0-0.155-0.02-0.306-0.047-0.454 0.421 0.286 0.927 0.454 1.473 0.454 1.446 0 2.619-1.173 2.619-2.62 0-0.46-0.129-0.885-0.337-1.261 1.282-0.282 2.244-1.421 2.244-2.789C55.193 56.04 53.914 54.759 52.334 54.759z" fill="#ffbf5d" data-fill-palette-color="accent"></path><circle cx="34.236" cy="60.477" r="1.2" fill="#ffbf5d" data-fill-palette-color="accent"></circle><circle cx="57.811" cy="54.76" r="1.4" fill="#ffbf5d" data-fill-palette-color="accent"></circle><circle cx="55.193" cy="49.286" r="1.2" fill="#ffbf5d" data-fill-palette-color="accent"></circle><circle cx="59.234" cy="48.091" r="1.2" fill="#ffbf5d" data-fill-palette-color="accent"></circle><path d="M54.246 44.59c4.286-0.955-0.953-4.045-2.618-3.093-1.664 0.953-3.098 0.953-7.146-1.19-4.047-2.144-5.716-0.477-10.479 2.857-4.762 3.334 0.953 6.668 0.953 6.668 1.429 4.048 7.381-1.905 9.525-3.811C46.628 44.116 49.959 45.545 54.246 44.59z" fill="#ffbf5d" data-fill-palette-color="accent"></path><path d="M63.314 63.039l-0.265-3.517c-0.811 1.398-1.794 2.723-2.99 3.92-7.423 7.423-19.458 7.423-26.88 0-7.424-7.425-7.424-19.459 0-26.881 6.887-6.888 17.74-7.373 25.2-1.478 0.402-0.718 0.904-1.374 1.485-1.953-8.423-6.628-20.655-6.073-28.421 1.694-8.382 8.381-8.382 21.969 0 30.352 8.38 8.381 21.97 8.381 30.352 0 0.569-0.569 1.092-1.167 1.584-1.78C63.359 63.275 63.325 63.161 63.314 63.039z" fill="#ffbf5d" data-fill-palette-color="accent"></path><g fill="#ffbf5d" data-fill-palette-color="accent"><path d="M69.512 66.91c-0.416 0.163-0.852 0.285-1.311 0.319-0.115 0.008-0.229 0.013-0.344 0.013-1.256 0-2.402-0.537-3.234-1.391-0.336 0.38-0.66 0.768-1.023 1.131-9.379 9.378-24.585 9.378-33.963 0-9.379-9.38-9.379-24.584 0-33.963 8.861-8.861 22.919-9.338 32.354-1.453 1.028-0.539 2.179-0.883 3.409-0.977 0.223-0.017 0.445-0.025 0.664-0.025 1.576 0 3.061 0.432 4.35 1.174-0.787-1.024-1.643-2.014-2.58-2.953-11.717-11.715-30.713-11.715-42.428 0-11.716 11.716-11.716 30.711 0 42.428 11.715 11.715 30.711 11.714 42.428-0.001 0.4-0.4 0.783-0.811 1.156-1.227L69.512 66.91z" fill="#ffbf5d" data-fill-palette-color="accent"></path></g></g></svg></g></svg></g></svg></g><defs></defs></svg><rect width="395.52" height="76.98149108392116" fill="none" stroke="none" visibility="hidden"></rect></g></svg></g></svg>